<svg width="82" height="82" viewBox="0 0 82 82" fill="none" xmlns="http://www.w3.org/2000/svg">
<g clip-path="url(#clip0_4381_2006)">
<g clip-path="url(#clip1_4381_2006)">
<path d="M64.0371 35.5078C70.8922 35.5079 76.4492 41.0658 76.4492 47.9209C76.4487 54.7756 70.8919 60.3329 64.0371 60.333C58.2296 60.3329 53.3545 56.3434 52 50.9561L56.6475 48.4824C56.935 52.3133 60.1328 55.3329 64.0371 55.333C68.1305 55.3329 71.4487 52.0141 71.4492 47.9209C71.4492 43.8272 68.1308 40.5079 64.0371 40.5078C62.1115 40.5079 60.3577 41.2422 59.04 42.4463L60.1533 36.1289C61.3751 35.7262 62.6805 35.5078 64.0371 35.5078ZM59.3105 24.6016L56.1826 42.3428L52.9697 40.6338L55.9023 24L59.3105 24.6016ZM73.9492 25.6553V30.6553H61.1191L62.001 25.6553H73.9492Z" fill="#FFE700"/>
</g>
<g clip-path="url(#clip2_4381_2006)">
<g clip-path="url(#clip3_4381_2006)">
<mask id="mask0_4381_2006" style="mask-type:alpha" maskUnits="userSpaceOnUse" x="-6" y="-1" width="75" height="117">
<path d="M5 115.766L2.29297 114.326L5 109.234V115.766ZM5 98.8379L-1.29297 110.674L-5.70703 108.326L5 88.1895V98.8379ZM0.583008 69.5H-3.5V64.5H3.24219L0.583008 69.5ZM45.2461 23L23.5 64H23.5234L23.2578 64.5H28.7861L28.8252 64.4258H34.4883L34.4492 64.5H39.8457L39.8066 64.4258H45.4697L45.5088 64.5H51.1865L51.1465 64.4258H56.8164L56.8564 64.5H65.9824L68.6416 69.5H14.959L21.6006 57.0098L21.582 57.001L28.7207 43.5762L23.0967 33H28.7461L29.2773 34L29.2881 33.9932L31.5518 38.251L37.0029 28H31.75L29.0918 23H45.2461ZM61.9834 13L59.3252 18H59.1738L56.5146 23H56.666L54.0078 28H53.8564L45.6201 43.4893L51.2412 54H45.5713L42.793 48.8047L39.9785 54.0986L40.0049 54.1484L37.0146 59.5H31.4443L34.3154 54.0996L34.3096 54.0889L51.2324 22.5L51.1436 22.4492L53.5107 18H20.7842L22.5605 21.3408L22.5498 21.3477L26.0869 28H20.4346L17.7764 23H17.7803L15.1211 18H15.1172L12.459 13H61.9834ZM56.3984 2.17188L56.3213 2.31641H50.6592L51.9844 -0.175781L56.3984 2.17188Z" fill="#FFE700"/>
</mask>
<g mask="url(#mask0_4381_2006)">
<rect x="9" y="9" width="70" height="11" fill="#30F4E4"/>
<rect x="14" y="16" width="14" height="20" fill="#30F4E4"/>
<rect x="19" y="81.5025" width="78.7165" height="15.9961" transform="rotate(-62 19 81.5025)" fill="#30F4E4"/>
<rect x="29" y="22" width="12" height="16" fill="#00B2D1"/>
<rect x="30" y="20" width="16" height="11" fill="#00B2D1"/>
<rect x="4.70679" y="67.1895" width="43.1303" height="19.5547" transform="rotate(-62 4.70679 67.1895)" fill="#00B2D1"/>
<rect x="-9" y="60" width="81" height="13" fill="#00B2D1"/>
</g>
</g>
</g>
</g>
<defs>
<clipPath id="clip0_4381_2006">
<rect width="82" height="82" rx="41" fill="white"/>
</clipPath>
<clipPath id="clip1_4381_2006">
<rect width="24.4492" height="36.333" fill="white" transform="translate(52 24)"/>
</clipPath>
<clipPath id="clip2_4381_2006">
<rect width="58" height="73" fill="white" transform="translate(12)"/>
</clipPath>
<clipPath id="clip3_4381_2006">
<rect width="75" height="71" fill="white" transform="translate(-6 -1)"/>
</clipPath>
</defs>
</svg>
